<svg id="SvgjsSvg1006" width="1076.6097039116753" height="595.7613483775746" xmlns="http://www.w3.org/2000/svg" version="1.1" xmlns:xlink="http://www.w3.org/1999/xlink" xmlns:svgjs="http://svgjs.com/svgjs"><defs id="SvgjsDefs1007"><pattern patternUnits="userSpaceOnUse" id="pattern_mark_0" width="300" height="300"><text x="150" y="100" fill="rgba(229,229,229,0.8)" font-size="18" transform="rotate(-45, 150, 150)" style="dominant-baseline: middle; text-anchor: middle;"></text></pattern><pattern patternUnits="userSpaceOnUse" id="pattern_mark_1" width="300" height="300"><text x="150" y="200" fill="rgba(229,229,229,0.8)" font-size="18" transform="rotate(-45, 150, 150)" style="dominant-baseline: middle; text-anchor: middle;"></text></pattern><marker id="SvgjsMarker1035" markerWidth="14" markerHeight="10" refX="10" refY="5" viewBox="0 0 14 10" orient="auto" markerUnits="userSpaceOnUse" stroke-dasharray="0,0"><path id="SvgjsPath1036" d="M0,0 L14,5 L0,10 L0,0" fill="#323232" stroke="#323232" stroke-width="1"></path></marker><marker id="SvgjsMarker1045" markerWidth="14" markerHeight="10" refX="10" refY="5" viewBox="0 0 14 10" orient="auto" markerUnits="userSpaceOnUse" stroke-dasharray="0,0"><path id="SvgjsPath1046" d="M0,0 L14,5 L0,10 L0,0" fill="#323232" stroke="#323232" stroke-width="1"></path></marker><marker id="SvgjsMarker1085" markerWidth="14" markerHeight="10" refX="10" refY="5" viewBox="0 0 14 10" orient="auto" markerUnits="userSpaceOnUse" stroke-dasharray="0,0"><path id="SvgjsPath1086" d="M0,0 L14,5 L0,10 L0,0" fill="#323232" stroke="#323232" stroke-width="1"></path></marker><marker id="SvgjsMarker1089" markerWidth="14" markerHeight="10" refX="10" refY="5" viewBox="0 0 14 10" orient="auto" markerUnits="userSpaceOnUse" stroke-dasharray="0,0"><path id="SvgjsPath1090" d="M0,0 L14,5 L0,10 L0,0" fill="#323232" stroke="#323232" stroke-width="1"></path></marker><marker id="SvgjsMarker1093" markerWidth="14" markerHeight="10" refX="10" refY="5" viewBox="0 0 14 10" orient="auto" markerUnits="userSpaceOnUse" stroke-dasharray="0,0"><path id="SvgjsPath1094" d="M0,0 L14,5 L0,10 L0,0" fill="#323232" stroke="#323232" stroke-width="1"></path></marker><marker id="SvgjsMarker1101" markerWidth="14" markerHeight="10" refX="10" refY="5" viewBox="0 0 14 10" orient="auto" markerUnits="userSpaceOnUse" stroke-dasharray="0,0"><path id="SvgjsPath1102" d="M0,0 L14,5 L0,10 L0,0" fill="#323232" stroke="#323232" stroke-width="1"></path></marker><marker id="SvgjsMarker1141" markerWidth="14" markerHeight="10" refX="10" refY="5" viewBox="0 0 14 10" orient="auto" markerUnits="userSpaceOnUse" stroke-dasharray="0,0"><path id="SvgjsPath1142" d="M0,0 L14,5 L0,10 L0,0" fill="#323232" stroke="#323232" stroke-width="1"></path></marker><marker id="SvgjsMarker1151" markerWidth="14" markerHeight="10" refX="10" refY="5" viewBox="0 0 14 10" orient="auto" markerUnits="userSpaceOnUse" stroke-dasharray="0,0"><path id="SvgjsPath1152" d="M0,0 L14,5 L0,10 L0,0" fill="#323232" stroke="#323232" stroke-width="1"></path></marker><marker id="SvgjsMarker1155" markerWidth="13" markerHeight="9" refX="9.5" refY="4.5" viewBox="0 0 13 9" orient="auto" markerUnits="userSpaceOnUse" stroke-dasharray="0,0"><path id="SvgjsPath1156" d="M0,0 L13,4.5 L0,9 L0,0" fill="#323232" stroke="#323232" stroke-width="1"></path></marker><marker id="SvgjsMarker1181" markerWidth="14" markerHeight="10" refX="10" refY="5" viewBox="0 0 14 10" orient="auto" markerUnits="userSpaceOnUse" stroke-dasharray="0,0"><path id="SvgjsPath1182" d="M0,0 L14,5 L0,10 L0,0" fill="#323232" stroke="#323232" stroke-width="1"></path></marker><marker id="SvgjsMarker1185" markerWidth="14" markerHeight="10" refX="10" refY="5" viewBox="0 0 14 10" orient="auto" markerUnits="userSpaceOnUse" stroke-dasharray="0,0"><path id="SvgjsPath1186" d="M0,0 L14,5 L0,10 L0,0" fill="#323232" stroke="#323232" stroke-width="1"></path></marker><marker id="SvgjsMarker1189" markerWidth="14" markerHeight="10" refX="10" refY="5" viewBox="0 0 14 10" orient="auto" markerUnits="userSpaceOnUse" stroke-dasharray="0,0"><path id="SvgjsPath1190" d="M0,0 L14,5 L0,10 L0,0" fill="#323232" stroke="#323232" stroke-width="1"></path></marker><marker id="SvgjsMarker1211" markerWidth="14" markerHeight="10" refX="10" refY="5" viewBox="0 0 14 10" orient="auto" markerUnits="userSpaceOnUse" stroke-dasharray="0,0"><path id="SvgjsPath1212" d="M0,0 L14,5 L0,10 L0,0" fill="#323232" stroke="#323232" stroke-width="1"></path></marker><marker id="SvgjsMarker1215" markerWidth="14" markerHeight="10" refX="10" refY="5" viewBox="0 0 14 10" orient="auto" markerUnits="userSpaceOnUse" stroke-dasharray="0,0"><path id="SvgjsPath1216" d="M0,0 L14,5 L0,10 L0,0" fill="#323232" stroke="#323232" stroke-width="1"></path></marker><marker id="SvgjsMarker1219" markerWidth="14" markerHeight="10" refX="10" refY="5" viewBox="0 0 14 10" orient="auto" markerUnits="userSpaceOnUse" stroke-dasharray="0,0"><path id="SvgjsPath1220" d="M0,0 L14,5 L0,10 L0,0" fill="#323232" stroke="#323232" stroke-width="1"></path></marker><marker id="SvgjsMarker1229" markerWidth="13" markerHeight="9" refX="9.5" refY="4.5" viewBox="0 0 13 9" orient="auto" markerUnits="userSpaceOnUse" stroke-dasharray="0,0"><path id="SvgjsPath1230" d="M0,0 L13,4.5 L0,9 L0,0" fill="#323232" stroke="#323232" stroke-width="1"></path></marker><marker id="SvgjsMarker1233" markerWidth="13" markerHeight="9" refX="9.5" refY="4.5" viewBox="0 0 13 9" orient="auto" markerUnits="userSpaceOnUse" stroke-dasharray="0,0"><path id="SvgjsPath1234" d="M0,0 L13,4.5 L0,9 L0,0" fill="#323232" stroke="#323232" stroke-width="1"></path></marker></defs><rect id="svgbackgroundid" width="1076.6097039116753" height="595.7613483775746" fill="transparent"></rect><rect id="SvgjsRect1009" width="1076.6097039116753" height="595.7613483775746" fill="url(#pattern_mark_0)"></rect><rect id="SvgjsRect1010" width="1076.6097039116753" height="595.7613483775746" fill="url(#pattern_mark_1)"></rect><g id="SvgjsG1011" transform="translate(759.5097130669487,101.94316274469554)"><path id="SvgjsPath1012" d="M 0 4Q 0 0 4 0L 288.1 0Q 292.1 0 292.1 4L 292.1 407.457Q 292.1 411.457 288.1 411.457L 4 411.457Q 0 411.457 0 407.457Z" stroke="rgba(33,41,48,1)" stroke-width="1.5" fill-opacity="1" fill="#dbf5f5"></path><g id="SvgjsG1013"><text id="SvgjsText1014" font-family="&quot;Microsoft YaHei&quot;, 微软雅黑, Arial" text-anchor="middle" font-size="13px" width="273px" fill="#323232" font-weight="400" align="middle" lineHeight="125%" anchor="middle" family="&quot;Microsoft YaHei&quot;, 微软雅黑, Arial" size="13px" weight="400" font-style="" opacity="1" y="195.1035" transform="rotate(0)"></text></g></g><g id="SvgjsG1015" transform="translate(785.3597039116753,266.63634074818003)"><path id="SvgjsPath1016" d="M 0 4Q 0 0 4 0L 236.4 0Q 240.4 0 240.4 4L 240.4 45.5Q 240.4 49.5 236.4 49.5L 4 49.5Q 0 49.5 0 45.5Z" stroke="rgba(33,41,48,1)" stroke-width="2" fill-opacity="1" fill="#ffffff"></path><g id="SvgjsG1017"><text id="SvgjsText1018" font-family="&quot;Microsoft YaHei&quot;, 微软雅黑, Arial" text-anchor="middle" font-size="13px" width="221px" fill="#323232" font-weight="700" align="middle" lineHeight="125%" anchor="middle" family="&quot;Microsoft YaHei&quot;, 微软雅黑, Arial" size="13px" weight="700" font-style="" opacity="1" y="14.125" transform="rotate(0)"><tspan id="SvgjsTspan1019" dy="16.25" x="120.5"><tspan id="SvgjsTspan1020" style="">1x1 Convolution</tspan></tspan></text></g></g><g id="SvgjsG1021" transform="translate(850.7847088707817,104.62244338218613)"><path id="SvgjsPath1022" d="M 0 0L 109.55 0L 109.55 40L 0 40Z" stroke="none" fill="none"></path><g id="SvgjsG1023"><text id="SvgjsText1024" font-family="&quot;Microsoft YaHei&quot;, 微软雅黑, Arial" text-anchor="middle" font-size="14px" width="110px" fill="#323232" font-weight="700" align="middle" lineHeight="125%" anchor="middle" family="&quot;Microsoft YaHei&quot;, 微软雅黑, Arial" size="14px" weight="700" font-style="" opacity="1" y="8.25" transform="rotate(0)"><tspan id="SvgjsTspan1025" dy="17.5" x="55"><tspan id="SvgjsTspan1026" style="">Residual Blocks</tspan></tspan></text></g></g><g id="SvgjsG1027" transform="translate(785.3597039116753,348.26134837757456)"><path id="SvgjsPath1028" d="M 0 4Q 0 0 4 0L 236.4 0Q 240.4 0 240.4 4L 240.4 45.5Q 240.4 49.5 236.4 49.5L 4 49.5Q 0 49.5 0 45.5Z" stroke="rgba(33,41,48,1)" stroke-width="2" fill-opacity="1" fill="#ffffff"></path><g id="SvgjsG1029"><text id="SvgjsText1030" font-family="&quot;Microsoft YaHei&quot;, 微软雅黑, Arial" text-anchor="middle" font-size="13px" width="221px" fill="#323232" font-weight="700" align="middle" lineHeight="125%" anchor="middle" family="&quot;Microsoft YaHei&quot;, 微软雅黑, Arial" size="13px" weight="700" font-style="" opacity="1" y="14.125" transform="rotate(0)"><tspan id="SvgjsTspan1031" dy="16.25" x="120.5"><tspan id="SvgjsTspan1032" style="">BatchNorm + ReLU</tspan></tspan></text></g></g><g id="SvgjsG1033"><path id="SvgjsPath1034" d="M905.5597041973313 316.7613636363636L905.5597041973313 332.0113560069691L905.5597048039008 332.0113560069691L905.5597048039008 344.66134837757454" stroke="#323232" stroke-width="2" fill="none" marker-end="url(#SvgjsMarker1035)"></path></g><g id="SvgjsG1037" transform="translate(785.3597039116753,430.2613331187855)"><path id="SvgjsPath1038" d="M 0 4Q 0 0 4 0L 236.4 0Q 240.4 0 240.4 4L 240.4 46.361Q 240.4 50.361 236.4 50.361L 4 50.361Q 0 50.361 0 46.361Z" stroke="rgba(33,41,48,1)" stroke-width="2" fill-opacity="1" fill="#ffffff"></path><g id="SvgjsG1039"><text id="SvgjsText1040" font-family="&quot;Microsoft YaHei&quot;, 微软雅黑, Arial" text-anchor="middle" font-size="13px" width="221px" fill="#323232" font-weight="700" align="middle" lineHeight="125%" anchor="middle" family="&quot;Microsoft YaHei&quot;, 微软雅黑, Arial" size="13px" weight="700" font-style="" opacity="1" y="14.555499999999999" transform="rotate(0)"><tspan id="SvgjsTspan1041" dy="16.25" x="120.5"><tspan id="SvgjsTspan1042" style="">SE Attention Module</tspan></tspan></text></g></g><g id="SvgjsG1043"><path id="SvgjsPath1044" d="M905.559702961195 398.76134837757456L905.559702961195 414.01134074818003L905.559703138596 414.01134074818003L905.559703138596 426.6613331187855" stroke="#323232" stroke-width="2" fill="none" marker-end="url(#SvgjsMarker1045)"></path></g><g id="SvgjsG1047" transform="translate(25,25)"><path id="SvgjsPath1048" d="M 0 4Q 0 0 4 0L 275.25 0Q 279.25 0 279.25 4L 279.25 56.136Q 279.25 60.136 275.25 60.136L 4 60.136Q 0 60.136 0 56.136Z" stroke="rgba(33,41,48,1)" stroke-width="2" fill-opacity="1" fill="#f2d7ba"></path><g id="SvgjsG1049"><text id="SvgjsText1050" font-family="&quot;Microsoft YaHei&quot;, 微软雅黑, Arial" text-anchor="middle" font-size="14px" width="260px" fill="#323232" font-weight="700" align="middle" lineHeight="125%" anchor="middle" family="&quot;Microsoft YaHei&quot;, 微软雅黑, Arial" size="14px" weight="700" font-style="" opacity="1" y="18.318" transform="rotate(0)"><tspan id="SvgjsTspan1051" dy="17.5" x="140"><tspan id="SvgjsTspan1052" style="">Input Image (B, 1, H, W)</tspan></tspan></text></g></g><g id="SvgjsG1053" transform="translate(25,107.63636363636363)"><path id="SvgjsPath1054" d="M 0 4Q 0 0 4 0L 275.25 0Q 279.25 0 279.25 4L 279.25 324.375Q 279.25 328.375 275.25 328.375L 4 328.375Q 0 328.375 0 324.375Z" stroke="rgba(33,41,48,1)" stroke-width="2" fill-opacity="1" fill="#d2d6f9"></path><g id="SvgjsG1055"><text id="SvgjsText1056" font-family="&quot;Microsoft YaHei&quot;, 微软雅黑, Arial" text-anchor="middle" font-size="13px" width="260px" fill="#323232" font-weight="400" align="middle" lineHeight="125%" anchor="middle" family="&quot;Microsoft YaHei&quot;, 微软雅黑, Arial" size="13px" weight="400" font-style="" opacity="1" y="153.5625" transform="rotate(0)"></text></g></g><g id="SvgjsG1057" transform="translate(43.75627136230469,121.51136363636363)"><path id="SvgjsPath1058" d="M 0 0L 125.531 0L 125.531 40L 0 40Z" stroke="none" fill="none"></path><g id="SvgjsG1059"><text id="SvgjsText1060" font-family="&quot;Microsoft YaHei&quot;, 微软雅黑, Arial" text-anchor="start" font-size="14px" width="126px" fill="#323232" font-weight="700" align="middle" lineHeight="125%" anchor="start" family="&quot;Microsoft YaHei&quot;, 微软雅黑, Arial" size="14px" weight="700" font-style="" opacity="1" y="-0.25" transform="rotate(0)"><tspan id="SvgjsTspan1061" dy="17.5" x="0"><tspan id="SvgjsTspan1062" style="">Preprocessing</tspan></tspan><tspan id="SvgjsTspan1063" dy="17.5" x="0"><tspan id="SvgjsTspan1064" style="">Filter Module</tspan></tspan></text></g></g><g id="SvgjsG1065" transform="translate(75.5,175.01136363636363)"><path id="SvgjsPath1066" d="M 0 4Q 0 0 4 0L 174.25 0Q 178.25 0 178.25 4L 178.25 45.5Q 178.25 49.5 174.25 49.5L 4 49.5Q 0 49.5 0 45.5Z" stroke="rgba(33,41,48,1)" stroke-width="2" fill-opacity="1" fill="#dbf5f5"></path><g id="SvgjsG1067"><text id="SvgjsText1068" font-family="&quot;Microsoft YaHei&quot;, 微软雅黑, Arial" text-anchor="middle" font-size="13px" width="159px" fill="#323232" font-weight="700" align="middle" lineHeight="125%" anchor="middle" family="&quot;Microsoft YaHei&quot;, 微软雅黑, Arial" size="13px" weight="700" font-style="" opacity="1" y="14.125" transform="rotate(0)"><tspan id="SvgjsTspan1069" dy="16.25" x="89.5"><tspan id="SvgjsTspan1070" style="">Gamma Correction</tspan></tspan></text></g></g><g id="SvgjsG1071" transform="translate(75.5,266.2613636363636)"><path id="SvgjsPath1072" d="M 0 4Q 0 0 4 0L 174.25 0Q 178.25 0 178.25 4L 178.25 45.5Q 178.25 49.5 174.25 49.5L 4 49.5Q 0 49.5 0 45.5Z" stroke="rgba(33,41,48,1)" stroke-width="2" fill-opacity="1" fill="#dbf5f5"></path><g id="SvgjsG1073"><text id="SvgjsText1074" font-family="&quot;Microsoft YaHei&quot;, 微软雅黑, Arial" text-anchor="middle" font-size="13px" width="159px" fill="#323232" font-weight="700" align="middle" lineHeight="125%" anchor="middle" family="&quot;Microsoft YaHei&quot;, 微软雅黑, Arial" size="13px" weight="700" font-style="" opacity="1" y="14.125" transform="rotate(0)"><tspan id="SvgjsTspan1075" dy="16.25" x="89.5"><tspan id="SvgjsTspan1076" style="">Blending</tspan></tspan></text></g></g><g id="SvgjsG1077" transform="translate(75.5,357.5113636363636)"><path id="SvgjsPath1078" d="M 0 4Q 0 0 4 0L 174.25 0Q 178.25 0 178.25 4L 178.25 45.5Q 178.25 49.5 174.25 49.5L 4 49.5Q 0 49.5 0 45.5Z" stroke="rgba(33,41,48,1)" stroke-width="2" fill-opacity="1" fill="#dbf5f5"></path><g id="SvgjsG1079"><text id="SvgjsText1080" font-family="&quot;Microsoft YaHei&quot;, 微软雅黑, Arial" text-anchor="middle" font-size="13px" width="159px" fill="#323232" font-weight="700" align="middle" lineHeight="125%" anchor="middle" family="&quot;Microsoft YaHei&quot;, 微软雅黑, Arial" size="13px" weight="700" font-style="" opacity="1" y="14.125" transform="rotate(0)"><tspan id="SvgjsTspan1081" dy="16.25" x="89.5"><tspan id="SvgjsTspan1082" style="">Bilateral Filter</tspan></tspan></text></g></g><g id="SvgjsG1083"><path id="SvgjsPath1084" d="M164.625 86.136L164.625 130.0736818181818L164.625 130.0736818181818L164.625 171.41136363636363" stroke="#323232" stroke-width="2" fill="none" marker-end="url(#SvgjsMarker1085)"></path></g><g id="SvgjsG1087"><path id="SvgjsPath1088" d="M164.625 225.51136363636363L164.625 245.38636363636363L164.625 245.38636363636363L164.625 262.6613636363636" stroke="#323232" stroke-width="2" fill="none" marker-end="url(#SvgjsMarker1089)"></path></g><g id="SvgjsG1091"><path id="SvgjsPath1092" d="M164.625 316.7613636363636L164.625 336.6363636363636L164.625 336.6363636363636L164.625 353.9113636363636" stroke="#323232" stroke-width="2" fill="none" marker-end="url(#SvgjsMarker1093)"></path></g><g id="SvgjsG1095" transform="translate(383.9999771118164,47.51134837757456)"><path id="SvgjsPath1096" d="M 0 4Q 0 0 4 0L 304 0Q 308 0 308 4L 308 437.444Q 308 441.444 304 441.444L 4 441.444Q 0 441.444 0 437.444Z" stroke="rgba(33,41,48,1)" stroke-width="2" fill-opacity="1" fill="#fcf9ea"></path><g id="SvgjsG1097"><text id="SvgjsText1098" font-family="&quot;Microsoft YaHei&quot;, 微软雅黑, Arial" text-anchor="middle" font-size="13px" width="288px" fill="#323232" font-weight="700" align="middle" lineHeight="125%" anchor="middle" family="&quot;Microsoft YaHei&quot;, 微软雅黑, Arial" size="13px" weight="700" font-style="" opacity="1" y="210.097" transform="rotate(0)"></text></g></g><g id="SvgjsG1099"><path id="SvgjsPath1100" d="M164.625 408.0113636363636L164.625 471.0113636363636L343.8749885559082 471.0113636363636L343.8749885559082 28.178030303030283L528.0187408447266 28.178030303030283L528.0187408447266 75.7863560069691" stroke="#323232" stroke-width="2" fill="none" marker-end="url(#SvgjsMarker1101)"></path></g><g id="SvgjsG1103" transform="translate(407.81874084472656,79.3863560069691)"><path id="SvgjsPath1104" d="M 0 4Q 0 0 4 0L 236.4 0Q 240.4 0 240.4 4L 240.4 46Q 240.4 50 236.4 50L 4 50Q 0 50 0 46Z" stroke="rgba(33,41,48,1)" stroke-width="2" fill-opacity="1" fill="#dbf5f5"></path><g id="SvgjsG1105"><text id="SvgjsText1106" font-family="&quot;Microsoft YaHei&quot;, 微软雅黑, Arial" text-anchor="middle" font-size="13px" width="221px" fill="#323232" font-weight="700" align="middle" lineHeight="125%" anchor="middle" family="&quot;Microsoft YaHei&quot;, 微软雅黑, Arial" size="13px" weight="700" font-style="" opacity="1" y="14.375" transform="rotate(0)"><tspan id="SvgjsTspan1107" dy="16.25" x="120.5"><tspan id="SvgjsTspan1108" style="">Multi-Scale Convolution (3,5,7)</tspan></tspan></text></g></g><g id="SvgjsG1109" transform="translate(422.81874084472656,271.26134837757456)"><path id="SvgjsPath1110" d="M 0 4Q 0 0 4 0L 236.4 0Q 240.4 0 240.4 4L 240.4 108.75Q 240.4 112.75 236.4 112.75L 4 112.75Q 0 112.75 0 108.75Z" stroke="rgba(33,41,48,1)" stroke-width="2" fill-opacity="1" fill="#dbf5f5"></path><g id="SvgjsG1111"><text id="SvgjsText1112" font-family="&quot;Microsoft YaHei&quot;, 微软雅黑, Arial" text-anchor="middle" font-size="16px" width="221px" fill="#323232" font-weight="700" align="middle" lineHeight="125%" anchor="middle" family="&quot;Microsoft YaHei&quot;, 微软雅黑, Arial" size="16px" weight="700" font-style="" opacity="1" y="42.375" transform="rotate(0)"><tspan id="SvgjsTspan1113" dy="20" x="120.5"><tspan id="SvgjsTspan1114" style="">Residual Blocks</tspan></tspan></text></g></g><g id="SvgjsG1115" transform="translate(415.31874084472656,277.51134837757456)"><path id="SvgjsPath1116" d="M 0 4Q 0 0 4 0L 236.4 0Q 240.4 0 240.4 4L 240.4 108.75Q 240.4 112.75 236.4 112.75L 4 112.75Q 0 112.75 0 108.75Z" stroke="rgba(33,41,48,1)" stroke-width="2" fill-opacity="1" fill="#dbf5f5"></path><g id="SvgjsG1117"><text id="SvgjsText1118" font-family="&quot;Microsoft YaHei&quot;, 微软雅黑, Arial" text-anchor="middle" font-size="16px" width="221px" fill="#323232" font-weight="700" align="middle" lineHeight="125%" anchor="middle" family="&quot;Microsoft YaHei&quot;, 微软雅黑, Arial" size="16px" weight="700" font-style="" opacity="1" y="42.375" transform="rotate(0)"><tspan id="SvgjsTspan1119" dy="20" x="120.5"><tspan id="SvgjsTspan1120" style="">Residual Blocks</tspan></tspan></text></g></g><g id="SvgjsG1121" transform="translate(407.81874084472656,200.38634837757456)"><path id="SvgjsPath1122" d="M 0 4Q 0 0 4 0L 236.4 0Q 240.4 0 240.4 4L 240.4 45.5Q 240.4 49.5 236.4 49.5L 4 49.5Q 0 49.5 0 45.5Z" stroke="rgba(33,41,48,1)" stroke-width="2" fill-opacity="1" fill="#dbf5f5"></path><g id="SvgjsG1123"><text id="SvgjsText1124" font-family="&quot;Microsoft YaHei&quot;, 微软雅黑, Arial" text-anchor="middle" font-size="13px" width="221px" fill="#323232" font-weight="700" align="middle" lineHeight="125%" anchor="middle" family="&quot;Microsoft YaHei&quot;, 微软雅黑, Arial" size="13px" weight="700" font-style="" opacity="1" y="14.125" transform="rotate(0)"><tspan id="SvgjsTspan1125" dy="16.25" x="120.5"><tspan id="SvgjsTspan1126" style="">1x1 Convolution</tspan></tspan></text></g></g><g id="SvgjsG1127" transform="translate(407.81874084472656,285.01134837757456)"><path id="SvgjsPath1128" d="M 0 4Q 0 0 4 0L 236.4 0Q 240.4 0 240.4 4L 240.4 108.75Q 240.4 112.75 236.4 112.75L 4 112.75Q 0 112.75 0 108.75Z" stroke="rgba(33,41,48,1)" stroke-width="2" fill-opacity="1" fill="#dbf5f5"></path><g id="SvgjsG1129"><text id="SvgjsText1130" font-family="&quot;Microsoft YaHei&quot;, 微软雅黑, Arial" text-anchor="middle" font-size="16px" width="221px" fill="#323232" font-weight="700" align="middle" lineHeight="125%" anchor="middle" family="&quot;Microsoft YaHei&quot;, 微软雅黑, Arial" size="16px" weight="700" font-style="" opacity="1" y="42.375" transform="rotate(0)"><tspan id="SvgjsTspan1131" dy="20" x="120.5"><tspan id="SvgjsTspan1132" style="">Residual Blocks</tspan></tspan></text></g></g><g id="SvgjsG1133" transform="translate(597.5243055555554,281.8863560069691)"><path id="SvgjsPath1134" d="M 0 0L 50.694 0L 50.694 38.25L 0 38.25Z" stroke="none" fill="none"></path><g id="SvgjsG1135"><text id="SvgjsText1136" font-family="&quot;Microsoft YaHei&quot;, 微软雅黑, Arial" text-anchor="middle" font-size="13px" width="51px" fill="#323232" font-weight="700" align="middle" lineHeight="125%" anchor="middle" family="&quot;Microsoft YaHei&quot;, 微软雅黑, Arial" size="13px" weight="700" font-style="" opacity="1" y="8.5" transform="rotate(0)"><tspan id="SvgjsTspan1137" dy="16.25" x="25.5"><tspan id="SvgjsTspan1138" style="">x N</tspan></tspan></text></g></g><g id="SvgjsG1139"><path id="SvgjsPath1140" d="M528.0187408447266 250.88634837757456L528.0187408447266 267.44884837757456L528.0187408447266 267.44884837757456L528.0187408447266 281.41134837757454" stroke="#323232" stroke-width="2" fill="none" marker-end="url(#SvgjsMarker1141)"></path></g><g id="SvgjsG1143" transform="translate(407.81874084472656,416.63634837757456)"><path id="SvgjsPath1144" d="M 0 4Q 0 0 4 0L 236.4 0Q 240.4 0 240.4 4L 240.4 45.5Q 240.4 49.5 236.4 49.5L 4 49.5Q 0 49.5 0 45.5Z" stroke="rgba(33,41,48,1)" stroke-width="2" fill-opacity="1" fill="#dbf5f5"></path><g id="SvgjsG1145"><text id="SvgjsText1146" font-family="&quot;Microsoft YaHei&quot;, 微软雅黑, Arial" text-anchor="middle" font-size="13px" width="221px" fill="#323232" font-weight="700" align="middle" lineHeight="125%" anchor="middle" family="&quot;Microsoft YaHei&quot;, 微软雅黑, Arial" size="13px" weight="700" font-style="" opacity="1" y="14.125" transform="rotate(0)"><tspan id="SvgjsTspan1147" dy="16.25" x="120.5"><tspan id="SvgjsTspan1148" style="">3x3 Convolution</tspan></tspan></text></g></g><g id="SvgjsG1149"><path id="SvgjsPath1150" d="M528.0187408447266 398.76134837757456L528.0187408447266 407.19884837757456L528.0187408447266 407.19884837757456L528.0187408447266 413.03634837757454" stroke="#323232" stroke-width="2" fill="none" marker-end="url(#SvgjsMarker1151)"></path></g><g id="SvgjsG1153"><path id="SvgjsPath1154" d="M528.0187408447266 467.13634837757456L528.0187408447266 489.74051558289113L528.0187328234306 489.74051558289113L528.0187328234306 510.39468278820766" stroke="#323232" stroke-width="1.5" fill="none" marker-end="url(#SvgjsMarker1155)"></path></g><g id="SvgjsG1157" transform="translate(395.9093589782715,511.13634074818003)"><path id="SvgjsPath1158" d="M 0 4Q 0 0 4 0L 260.219 0Q 264.219 0 264.219 4L 264.219 55.625Q 264.219 59.625 260.219 59.625L 4 59.625Q 0 59.625 0 55.625Z" stroke="rgba(33,41,48,1)" stroke-width="2" fill-opacity="1" fill="#f2d7ba"></path><g id="SvgjsG1159"><text id="SvgjsText1160" font-family="&quot;Microsoft YaHei&quot;, 微软雅黑, Arial" text-anchor="middle" font-size="14px" width="245px" fill="#323232" font-weight="700" align="middle" lineHeight="125%" anchor="middle" family="&quot;Microsoft YaHei&quot;, 微软雅黑, Arial" size="14px" weight="700" font-style="" opacity="1" y="18.0625" transform="rotate(0)"><tspan id="SvgjsTspan1161" dy="17.5" x="132.5"><tspan id="SvgjsTspan1162" style="">Noise Estimate Map</tspan></tspan></text></g></g><g id="SvgjsG1163" transform="translate(567.5,45.136363636363626)"><path id="SvgjsPath1164" d="M 0 0L 100 0L 100 40L 0 40Z" stroke="none" fill="none"></path><g id="SvgjsG1165"><text id="SvgjsText1166" font-family="&quot;Microsoft YaHei&quot;, 微软雅黑, Arial" text-anchor="middle" font-size="14px" width="100px" fill="#323232" font-weight="700" align="middle" lineHeight="125%" anchor="middle" family="&quot;Microsoft YaHei&quot;, 微软雅黑, Arial" size="14px" weight="700" font-style="" opacity="1" y="8.25" transform="rotate(0)"><tspan id="SvgjsTspan1167" dy="17.5" x="50"><tspan id="SvgjsTspan1168" style="">MSSE-DnCNN</tspan></tspan></text></g></g><g id="SvgjsG1169"><path id="SvgjsPath1170" d="M651.0073570496843 277.1474882487278L759.8738279529405 105.54760105830752" stroke-dasharray="7.5,3" stroke="#323232" stroke-width="1.5" fill="none"></path></g><g id="SvgjsG1171"><path id="SvgjsPath1172" d="M653.4753863063509 390.8605064635037L760.0390609657113 510.93939404752155" stroke-dasharray="7.5,3" stroke="#323232" stroke-width="1.5" fill="none"></path></g><g id="SvgjsG1173" transform="translate(437.4656171798706,151.6363560069691)"><path id="SvgjsPath1174" d="M 6.667 0L 174.44 0C 183.328 0 183.328 20 174.44 20L 6.667 20C -2.222 20 -2.222 0 6.667 0Z" stroke="rgba(33,41,48,1)" stroke-width="2" fill-opacity="1" fill="#ffffff"></path><g id="SvgjsG1175"><text id="SvgjsText1176" font-family="&quot;Microsoft YaHei&quot;, 微软雅黑, Arial" text-anchor="middle" font-size="12px" width="162px" fill="#323232" font-weight="700" align="middle" lineHeight="125%" anchor="middle" family="&quot;Microsoft YaHei&quot;, 微软雅黑, Arial" size="12px" weight="700" font-style="" opacity="1" y="0" transform="rotate(0)"><tspan id="SvgjsTspan1177" dy="15" x="91"><tspan id="SvgjsTspan1178" style="">Channel Concatenation</tspan></tspan></text></g></g><g id="SvgjsG1179"><path id="SvgjsPath1180" d="M528.0187408447266 130.3863560069691L528.0187408447266 140.32385982166636L528.0187408447266 140.32385982166636L528.0187408447266 147.66136363636363" stroke="#323232" stroke-width="2" fill="none" marker-end="url(#SvgjsMarker1181)"></path></g><g id="SvgjsG1183"><path id="SvgjsPath1184" d="M471.00000190734863 129.51134074818003L471.00000190734863 139.88635219227183L471.00000190734863 139.88635219227183L471.00000190734863 147.66136363636363" stroke="#323232" stroke-width="2" fill="none" marker-end="url(#SvgjsMarker1185)"></path></g><g id="SvgjsG1187"><path id="SvgjsPath1188" d="M528.0186171798706 172.26136363636363L528.0186171798706 185.8238560069691L528.0186171798706 185.8238560069691L528.0186171798706 196.78634837757457" stroke="#323232" stroke-width="2" fill="none" marker-end="url(#SvgjsMarker1189)"></path></g><g id="SvgjsG1191" transform="translate(523.5000019073486,168.76134837757456)"><path id="SvgjsPath1192" d="M 0 0L 66.537 0L 66.537 35.25L 0 35.25Z" stroke="none" fill="none"></path><g id="SvgjsG1193"><text id="SvgjsText1194" font-family="&quot;Microsoft YaHei&quot;, 微软雅黑, Arial" text-anchor="middle" font-size="12px" width="67px" fill="#323232" font-weight="700" align="middle" lineHeight="125%" anchor="middle" family="&quot;Microsoft YaHei&quot;, 微软雅黑, Arial" size="12px" weight="700" font-style="" opacity="1" y="7.625" transform="rotate(0)"><tspan id="SvgjsTspan1195" dy="15" x="33.5"><tspan id="SvgjsTspan1196" style="">ReLU</tspan></tspan></text></g></g><g id="SvgjsG1197" transform="translate(785.3597039116753,145.26134837757456)"><path id="SvgjsPath1198" d="M 0 4Q 0 0 4 0L 236.4 0Q 240.4 0 240.4 4L 240.4 46Q 240.4 50 236.4 50L 4 50Q 0 50 0 46Z" stroke="rgba(33,41,48,1)" stroke-width="2" fill-opacity="1" fill="#ffffff"></path><g id="SvgjsG1199"><text id="SvgjsText1200" font-family="&quot;Microsoft YaHei&quot;, 微软雅黑, Arial" text-anchor="middle" font-size="13px" width="221px" fill="#323232" font-weight="700" align="middle" lineHeight="125%" anchor="middle" family="&quot;Microsoft YaHei&quot;, 微软雅黑, Arial" size="13px" weight="700" font-style="" opacity="1" y="14.375" transform="rotate(0)"><tspan id="SvgjsTspan1201" dy="16.25" x="120.5"><tspan id="SvgjsTspan1202" style="">Multi-Scale Convolution (3,5,7)</tspan></tspan></text></g></g><g id="SvgjsG1203" transform="translate(815.0065802468193,217.1363560069691)"><path id="SvgjsPath1204" d="M 6.667 0L 174.44 0C 183.328 0 183.328 20 174.44 20L 6.667 20C -2.222 20 -2.222 0 6.667 0Z" stroke="rgba(33,41,48,1)" stroke-width="2" fill-opacity="1" fill="#ffffff"></path><g id="SvgjsG1205"><text id="SvgjsText1206" font-family="&quot;Microsoft YaHei&quot;, 微软雅黑, Arial" text-anchor="middle" font-size="12px" width="162px" fill="#323232" font-weight="700" align="middle" lineHeight="125%" anchor="middle" family="&quot;Microsoft YaHei&quot;, 微软雅黑, Arial" size="12px" weight="700" font-style="" opacity="1" y="0" transform="rotate(0)"><tspan id="SvgjsTspan1207" dy="15" x="91"><tspan id="SvgjsTspan1208" style="">Channel Concatenation</tspan></tspan></text></g></g><g id="SvgjsG1209"><path id="SvgjsPath1210" d="M905.5597039116753 196.26134837757456L905.5597039116753 206.19885219227183L905.5597039116753 206.19885219227183L905.5597039116753 213.5363560069691" stroke="#323232" stroke-width="2" fill="none" marker-end="url(#SvgjsMarker1211)"></path></g><g id="SvgjsG1213"><path id="SvgjsPath1214" d="M848.5409649742974 195.3863331187855L848.5409649742974 205.7613445628773L848.5409649742974 205.7613445628773L848.5409649742974 213.5363560069691" stroke="#323232" stroke-width="2" fill="none" marker-end="url(#SvgjsMarker1215)"></path></g><g id="SvgjsG1217"><path id="SvgjsPath1218" d="M905.5595802468192 238.1363560069691L905.5595802468192 251.88634837757456L905.5595802468192 251.88634837757456L905.5595802468192 263.03634074818" stroke="#323232" stroke-width="2" fill="none" marker-end="url(#SvgjsMarker1219)"></path></g><g id="SvgjsG1221" transform="translate(909.7284802330864,236.01134074818003)"><path id="SvgjsPath1222" d="M 0 0L 50.606 0L 50.606 33.875L 0 33.875Z" stroke="none" fill="none"></path><g id="SvgjsG1223"><text id="SvgjsText1224" font-family="&quot;Microsoft YaHei&quot;, 微软雅黑, Arial" text-anchor="middle" font-size="12px" width="51px" fill="#323232" font-weight="700" align="middle" lineHeight="125%" anchor="middle" family="&quot;Microsoft YaHei&quot;, 微软雅黑, Arial" size="12px" weight="700" font-style="" opacity="1" y="6.9375" transform="rotate(0)"><tspan id="SvgjsTspan1225" dy="15" x="25.5"><tspan id="SvgjsTspan1226" style="">ReLU</tspan></tspan></text></g></g><g id="SvgjsG1227"><path id="SvgjsPath1228" d="M585.0869208983278 129.17983118616573L585.0869208983278 140.69560065375737L585.0869208983278 140.69560065375737L585.0869208983278 149.261370121349" stroke="#323232" stroke-width="1.5" fill="none" marker-end="url(#SvgjsMarker1229)"></path></g><g id="SvgjsG1231"><path id="SvgjsPath1232" d="M961.4222344292534 195.83636249195445L961.4222344292534 206.08636249195445L961.4222344292534 206.08636249195445L961.4222344292534 214.38636249195446" stroke="#323232" stroke-width="1.5" fill="none" marker-end="url(#SvgjsMarker1233)"></path></g><g id="SvgjsG1235"></g></svg>